{"title":"Blind Detective HDRip.flv","uid":8928923,"size":619143297,"categoryP":"video","categoryS":"movies","magnet":"?xt=urn:btih:adc6da915b7caa81ceb881a6cf7636b1dec09c0a&amp;dn=Blind+Detective+HDRip.flv&amp;tr=udp%3A%2F%2Ftracker.openbittorrent.com%3A80&amp;tr=udp%3A%2F%2Fopen.demonii.com%3A1337&amp;tr=udp%3A%2F%2Ftracker.coppersurfer.tk%3A6969&amp;tr=udp%3A%2F%2Fexodus.desync.com%3A6969","seeders":1,"leechers":0,"uploader":"globeplus","files":-1,"time":1379427416,"description":"Blind Detective HDRip.flv\n\nFormat                                   : Flash Video\nFile size                                : 590 MiB\nDuration                                 : 2h 9mn\nOverall bit rate                         : 636 Kbps\nTagging application                      : Yet Another Metadata Injector for FLV - Version 1.9\n\nVideo\n\nFormat                                   : AVC\nFormat/Info                              : Advanced Video Codec\nFormat profile                           : &lt;a class=&quot;__cf_email__&quot; href=&quot;/cdn-cgi/l/email-protection&quot; data-cfemail=&quot;89cbe8faece5e0e7ecc9c5baa7b9&quot;&gt;[email&amp;#160;protected]&lt;/a&gt;&lt;script cf-hash='f9e31' type=&quot;text/javascript&quot;&gt;\n/* &lt;![CDATA[ */!function(){try{var t=&quot;currentScript&quot;in document?document.currentScript:function(){for(var t=document.getElementsByTagName(&quot;script&quot;),e=t.length;e--;)if(t[e].getAttribute(&quot;cf-hash&quot;))return t[e]}();if(t&amp;&amp;t.previousSibling){var e,r,n,i,c=t.previousSibling,a=c.getAttribute(&quot;data-cfemail&quot;);if(a){for(e=&quot;&quot;,r=parseInt(a.substr(0,2),16),n=2;a.length-n;n+=2)i=parseInt(a.substr(n,2),16)^r,e+=String.fromCharCode(i);e=document.createTextNode(e),c.parentNode.replaceChild(e,c)}}}catch(u){}}();/* ]]&gt; */&lt;/script&gt;\nFormat settings, CABAC                   : No\nFormat settings, ReFrames                : 1 frame\nCodec ID                                 : 7\nDuration                                 : 2h 9mn\nBit rate                                 : 526 Kbps\nWidth                                    : 720 pixels\nHeight                                   : 480 pixels\nDisplay aspect ratio                     : 3:2\nFrame rate mode                          : Constant\nFrame rate                               : 24.000 fps\nStandard                                 : NTSC\nColor space                              : YUV\nChroma subsampling                       : 4:2:0\nBit depth                                : 8 bits\nScan type                                : Progressive\nBits/(Pixel*Frame)                       : 0.063\nStream size                              : 495 MiB (84%)\nWriting library                          : x264 core 118\n\nAudio\n\nFormat                                   : AAC\nFormat/Info                              : Advanced Audio Codec\nFormat profile                           : LC\nCodec ID                                 : 10\nDuration                                 : 2h 9mn\nBit rate                                 : 94.4 Kbps\nChannel(s)                               : 2 channels\nChannel positions                        : Front: L R\nSampling rate                            : 44.1 KHz\nCompression mode                         : Lossy\nStream size                              : 93.3 MiB (16%)\n\nPlot\n\nForced to leave service after turning blind, former detective Johnston Chong See Tun (Andy Lau) ekes out his living by solving cold cases for police rewards. During a bank robbery case, he meets an attractive hit team inspector Goldie Ho Ka Tung. (Sammi Cheng). When Ho notices Chong's strong sense of hearing and smell, she enlists his help in a personal case and he decides to take a stab.\n\n\n\n* enjoy ...","torrent":{"xt":"urn:btih:adc6da915b7caa81ceb881a6cf7636b1dec09c0a","amp;dn":"Blind+Detective+HDRip.flv","amp;tr":["udp%3A%2F%2Ftracker.openbittorrent.com%3A80","udp%3A%2F%2Fopen.demonii.com%3A1337","udp%3A%2F%2Ftracker.coppersurfer.tk%3A6969","udp%3A%2F%2Fexodus.desync.com%3A6969"],"infoHash":"adc6da915b7caa81ceb881a6cf7636b1dec09c0a","infoHashBuffer":{"type":"Buffer","data":[173,198,218,145,91,124,170,129,206,184,129,166,207,118,54,177,222,192,156,10]},"announce":[],"urlList":[]}}